PathFileType	4	(X/Y/Z)	Apose_0-50.trc
DataRate	CameraRate	NumFrames	NumMarkers	Units	OrigDataRate	OrigDataStartFrame	OrigNumFrames
30	30	8	22	m	30	12	50
Frame#	Time	Hip			RHip			RKnee			RAnkle			RBigToe			RSmallToe			RHeel			LHip			LKnee			LAnkle			LBigToe			LSmallToe			LHeel			Neck			Head			Nose			RShoulder			RElbow			RWrist			LShoulder			LElbow			LWrist		
		X1	Y1	Z1	X2	Y2	Z2	X3	Y3	Z3	X4	Y4	Z4	X5	Y5	Z5	X6	Y6	Z6	X7	Y7	Z7	X8	Y8	Z8	X9	Y9	Z9	X10	Y10	Z10	X11	Y11	Z11	X12	Y12	Z12	X13	Y13	Z13	X14	Y14	Z14	X15	Y15	Z15	X16	Y16	Z16	X17	Y17	Z17	X18	Y18	Z18	X19	Y19	Z19	X20	Y20	Z20	X21	Y21	Z21	X22	Y22	Z22
13	0.43333333333333335	0.02909011641705476	0.8815065081128403	0.3633827079579602	0.026879891780801548	0.880296120449459	0.4758300386208021	-0.002657579689699268	0.503917765978633	0.5047201442086915	-0.008684462798640411	0.1066167767031067	0.5165160907071389	0.0	0.0	0.0	0.0	0.0	0.0	0.0	0.0	0.0	0.03169493493714311	0.8841127622072844	0.2509852108551949	0.008316357354451567	0.5025680958234232	0.2248903771424066	0.0030352111599525524	0.12508802554400192	0.20949411227718773	0.0	0.0	0.0	0.0	0.0	0.0	0.0	0.0	0.0	0.03419658850581373	1.4743646691892884	0.3515111736885653	0.33028099694115826	1.7213575943654638	0.35303511093049106	0.2438783537314871	1.572485925803073	0.32514199913884057	0.03932944819535663	1.4899408221546773	0.547621373575598	0.07505116335414835	1.2271626906594402	0.7218890727559922	0.12224736704302036	1.0472235743685716	0.895250315163209	0.021528371508434802	1.472699072710924	0.14947179479975262	0.02051599149452342	1.2223631309947558	0.00014112585184417723	0.0611151946115024	1.0156146431896211	-0.13744780495520642
14	0.4666666666666667	0.030876638606484704	0.8823151630114814	0.36248442584890256	0.02717713960158379	0.8825493536850794	0.4741499071584181	-0.0023803592560046973	0.5035667892304528	0.5023930203203568	-0.017021354255042517	0.10781180515771815	0.5156489075454255	0.0	0.0	0.0	0.0	0.0	0.0	0.0	0.0	0.0	0.034716904701416196	0.8835410015547148	0.25076807501709747	0.013024209225000777	0.48537812707335554	0.21679958926341614	0.0029644664122145726	0.12876665403894164	0.20808556714445503	0.0	0.0	0.0	0.0	0.0	0.0	0.0	0.0	0.0	0.03356672039905188	1.4757623468952261	0.35120254680722846	0.3303457900162056	1.7238822043964892	0.3553637026158704	0.24498628651912369	1.57584835625087	0.3280709204003092	0.037732667361394995	1.4924669015588317	0.5470545674152559	0.07629087029721074	1.2250513361728421	0.7240208392837663	0.14019634685964336	1.0252307566532337	0.8975030688717986	0.02222375505523951	1.4725750189704117	0.1499024195732102	0.0075048470783723	1.203439216919893	-0.008398360437691897	0.06985629062204689	1.0168200926653423	-0.14381286975989907
15	0.5	0.03045931710857445	0.88465036551798	0.3633466134593357	0.02752260745693169	0.8850391560908459	0.47560470336757726	-0.0039634063773175375	0.5050842467244547	0.5013693659813712	-0.011757034063093932	0.10230040881689972	0.5143726296359605	0.0	0.0	0.0	0.0	0.0	0.0	0.0	0.0	0.0	0.033629096654649686	0.8857963410933595	0.251043796502558	0.013644805109289091	0.4843223130255964	0.21361211880470987	0.000926616550867367	0.12568668480910844	0.21070982856158196	0.0	0.0	0.0	0.0	0.0	0.0	0.0	0.0	0.0	0.03185774173819881	1.4741467874207472	0.3487225513718543	0.3251498399027839	1.723006672457506	0.35027175754045725	0.24391112710766152	1.5777833122588367	0.3237491877544229	0.03375924520376562	1.4903402289515864	0.5436486090497942	0.07365024942913169	1.22658418455911	0.7228885680979709	0.11919494221330838	1.0478698311710752	0.8945390603136338	0.020076467153015247	1.4697352734836389	0.1466845343442316	0.009518636432722119	1.2005744025531422	-0.008422308844981673	0.06781547086607903	1.0117079170676637	-0.1410175375926507
16	0.5333333333333333	0.030413031951936027	0.8854439824390611	0.363649825900944	0.029450408517992105	0.8863651478470611	0.47568327702073987	-0.0016962359320040604	0.503459790751826	0.5032195993267441	-0.00888901244728212	0.10616824444672657	0.514527199520122	0.0	0.0	0.0	0.0	0.0	0.0	0.0	0.0	0.0	0.03161698024776511	0.8859540327235258	0.251502216046757	0.03210392413847164	0.5030372919013695	0.22544957900632698	0.0037290126247661918	0.12750685923591598	0.20920765465424504	0.0	0.0	0.0	0.0	0.0	0.0	0.0	0.0	0.0	0.03117328859710329	1.47494242467404	0.34951598651204624	0.24383655753063602	1.6823006378688772	0.3264689596852587	0.24517797628394936	1.5788851424580497	0.3241972359776621	0.033105598273015395	1.4919389122375486	0.5459504870867457	0.07106025878464207	1.240254002828517	0.7198339289895938	0.11583487403826159	1.0446700252031684	0.8914652768292143	0.02194411742952909	1.4683205111584132	0.1463376758264414	0.00994880601463797	1.1987702415552717	-0.009231486647832752	0.06803198426813062	1.0078556125563427	-0.1391015475979918
17	0.5666666666666667	0.029499581793570383	0.8838842525667625	0.3619547803046617	0.026430595352342053	0.8854577017911947	0.4743769612768317	-0.00034051534344278485	0.5041620438056732	0.5023765114743239	-0.012468900354200903	0.11251793330071108	0.5144038352477663	0.0	0.0	0.0	0.0	0.0	0.0	0.0	0.0	0.0	0.03287906245986924	0.8838606778531505	0.24948528421136057	0.03021616192383901	0.5005268643227299	0.22700733928721542	0.006473443515506049	0.1264197849228347	0.20835663053166564	0.0	0.0	0.0	0.0	0.0	0.0	0.0	0.0	0.0	0.030211842371428096	1.4751374184592314	0.3485835482509603	0.32475888879438836	1.7233428285000862	0.35401586131440355	0.24531247669951123	1.5783837635522715	0.32791653471148247	0.028958426327497393	1.4923630899776494	0.5432372257435525	0.06842650670802902	1.24176994371638	0.7175422304420912	0.11591057426857444	1.0428180932694164	0.892058996295834	0.02397952265396977	1.4699889690671137	0.14507043392787747	0.023699056778341204	1.2189648093469805	0.002065084548989263	0.07185593261381787	1.0097741260671809	-0.139221249073112
18	0.6	0.030682862508297985	0.8834535016977932	0.36047732498343077	0.029916250914206764	0.8838195873869554	0.47243013970221526	-0.001144747271563685	0.5051572896260521	0.5008362127348397	-0.014868856397297622	0.12078429216535051	0.5169652157096054	0.0	0.0	0.0	0.0	0.0	0.0	0.0	0.0	0.0	0.031729146367779196	0.8846082058799926	0.24848725339294478	0.017427151898313845	0.4827512863273502	0.2138525021276883	0.005366804350149734	0.1298843020991815	0.20657653075666627	0.0	0.0	0.0	0.0	0.0	0.0	0.0	0.0	0.0	0.032134557162573824	1.473239698170234	0.3463113530030274	0.32328055004727224	1.7266326250311497	0.3519181259933822	0.24054880550763882	1.5810396141433105	0.3227474006894588	0.033260983560417894	1.491778953808995	0.5441775788299185	0.07490912703990692	1.2410093402204716	0.7187086544715601	0.13577561290375947	1.0291739976830008	0.8919145782726322	0.02163649834801017	1.4671037194418954	0.14251942738270362	0.024921484207942875	1.2198640000032266	0.0018545642164037673	0.07231699540321498	1.009410067208204	-0.1398816458260397
19	0.6333333333333333	0.031211892108828708	0.8852888476182037	0.36453301707132846	0.027627980383423886	0.8870029555552444	0.4772479234915234	0.00012448888213282308	0.5085678863514739	0.5036196824788695	-0.008685347640161567	0.10495929794700223	0.5158859902850472	0.0	0.0	0.0	0.0	0.0	0.0	0.0	0.0	0.0	0.035029606542390485	0.8849513128846511	0.2516925208991761	0.035657484647946366	0.5035971607511873	0.22847019683867106	0.009417477997177084	0.1261535511013319	0.20639310968736016	0.0	0.0	0.0	0.0	0.0	0.0	0.0	0.0	0.0	0.02990509566582202	1.474305732224989	0.34609010736536105	0.24481689814408225	1.6845543475946039	0.32800400005702374	0.24735207338735007	1.5804807435647297	0.32524475265786307	0.03330515980637694	1.4923031319364688	0.5414183955021047	0.07226467577293604	1.2418324675047898	0.7179336631043535	0.13585126525743643	1.0291600200302973	0.8889130370491107	0.019963128377591746	1.467487572004498	0.14276420300393536	0.009350860505289191	1.2034666266474678	-0.01112216916112157	0.074203027746288	1.012822803953169	-0.1402646697608218
20	0.6666666666666666	0.031541864692611374	0.8878831677942991	0.36535830481370857	0.02913446251070613	0.8893753433146142	0.47999443892593674	0.0010001437707948195	0.5055253130454984	0.5028228771802914	-0.009781199394514937	0.10607390622848197	0.5160363119787602	0.0	0.0	0.0	0.0	0.0	0.0	0.0	0.0	0.0	0.03431882014713672	0.8876822320615683	0.25062699100817787	0.0178997909934879	0.48307887019892826	0.21792169664794853	0.0037761681664765863	0.12327387868723744	0.20817450360977066	0.0	0.0	0.0	0.0	0.0	0.0	0.0	0.0	0.0	0.02777756939993562	1.4758894743767856	0.347706012212861	0.23605590035398835	1.684262108041034	0.3297057572203803	0.23317890680031766	1.5790869554975269	0.3283984045205703	0.03247302351355154	1.4913003999253986	0.542069785112674	0.07181454404527808	1.2418864453911824	0.7158662540440758	0.13550209439670052	1.0325697644959668	0.8922331716481705	0.016878991379888082	1.4715170116902359	0.1446441721880082	0.009794198339410112	1.2012455088816618	-0.0067709300959861605	0.0801676982293675	1.0183902090973875	-0.14523783229235626
